Description

Sinopse e detalhes

Barney Ross (Sylvester Stallone) é o líder de um grupo de mercenários, que realiza qualquer missão desde que ela seja bem paga. Entre seus companheiros usuais estão o especialista em facas Lee Christmas (Jason Statham), Bao Thao (Jet Li) e Gunnar Jensen (Dolph Lundgren), que têm demonstrado instabilidade emocional durante as missões. Um dia, Barney e sua trupe são contratados para derrubar o general Garza (David Zayas), ditador da ilha de Vilena. Barney e Lee vão ao local e encontram Sandra (Gisele Itiê), que deseja derrubar o governo. Só que logo eles são atacados pelas forças de Garza e de Monroe (Eric Roberts), um empresário americano que financia o governo local. Barney e Lee deixam Vilena e abandonam a missão, mas a persistência de Sandra, que deseja ficar para lutar pela liberdade, mexe com os até então inexistentes princípios de Barney.

Format : AVI
Format/Info : Audio Video Interleave
Format profile : OpenDML
File size : 1.67 GiB
Duration : 1h 43mn
Overall bit rate mode : Variable
Overall bit rate : 2 315 Kbps
Writing application : Lavf52.84.0

Video
ID : 0
Format : AVC
Format/Info : Advanced Video Codec
Format profile : High@L3.1
Format settings, CABAC : Yes
Format settings, ReFrames : 1 frame
Format settings, GOP : M=1, N=15
Codec ID : H264
Duration : 1h 43mn
Bit rate mode : Variable
Bit rate : 2 143 Kbps
Maximum bit rate : 3 216 Kbps
Width : 1 280 pixels
Height : 720 pixels
Display aspect ratio : 16:9
Frame rate : 23.976 fps
Color space : YUV
Chroma subsampling : 4:2:0
Bit depth : 8 bits
Scan type : Progressive
Bits/(Pixel*Frame) : 0.097
Stream size : 1.55 GiB (93%)

Audio
ID : 1
Format : AC-3
Format/Info : Audio Coding 3
Mode extension : CM (complete main)
Format settings, Endianness : Big
Codec ID : 2000
Duration : 1h 43mn
Bit rate mode : Constant
Bit rate : 160 Kbps
Channel(s) : 2 channels
Channel positions : Front: L R
Sampling rate : 48.0 KHz
Bit depth : 16 bits
Compression mode : Lossy
Stream size : 119 MiB (7%)
Alignment : Aligned on interleaves
Interleave, duration : 32 ms (0.77 video frame)